<?xml version="1.0" standalone="no"?>
<!DOCTYPE svg PUBLIC "-//W3C//DTD SVG 20010904//EN"
 "http://www.w3.org/TR/2001/REC-SVG-20010904/DTD/svg10.dtd">
<svg version="1.0" xmlns="http://www.w3.org/2000/svg"
 viewBox="0 0 2600.000000 2600.000000"
 preserveAspectRatio="xMidYMid meet">
<metadata>
Created by potrace 1.15, written by Peter Selinger 2001-2017
</metadata>
<g transform="translate(0.000000,2600.000000) scale(0.100000,-0.100000)"
fill="#000000" stroke="none">
<path d="M7450 23123 c-382 -60 -711 -322 -855 -679 -41 -102 -52 -152 -201
-896 l-117 -586 -431 -5 c-454 -5 -477 -7 -620 -56 -268 -94 -496 -313 -597
-576 -70 -179 -69 -161 -69 -1151 0 -653 3 -900 12 -925 18 -52 55 -96 102
-118 41 -20 59 -21 454 -21 227 0 412 -2 412 -4 0 -17 672 -13765 680 -13914
8 -144 17 -216 35 -289 98 -385 429 -671 825 -713 134 -14 11103 -14 11225 0
125 15 195 34 304 86 296 139 496 409 541 730 9 68 690 13933 690 14058 l0 46
410 0 c348 0 416 2 448 15 47 20 78 50 105 100 l22 40 0 905 c0 999 2 955 -65
1141 -93 259 -320 484 -585 584 -142 54 -190 59 -644 64 l-425 6 -136 680
c-75 374 -145 705 -155 735 -10 30 -36 91 -58 135 -141 283 -381 485 -692 582
l-90 28 -5250 1 c-2887 1 -5261 0 -5275 -3z m10472 -424 c135 -28 307 -143
392 -262 95 -133 98 -145 232 -816 68 -339 126 -626 129 -638 l5 -23 -5985 0
c-4838 0 -5985 2 -5985 13 0 41 252 1262 270 1307 79 201 266 368 465 416 68
17 10396 20 10477 3z m2068 -2182 c190 -64 334 -208 396 -397 17 -51 19 -114
22 -822 l3 -768 -7715 0 -7716 0 0 750 c0 504 4 766 11 802 14 68 67 180 115
241 85 109 244 196 384 210 19 2 3277 3 7240 3 6976 -1 7207 -2 7260 -19z
m-6800 -4488 c1303 -85 2522 -520 3485 -1244 378 -284 728 -632 997 -990 855
-1139 1055 -2529 547 -3802 -531 -1333 -1831 -2426 -3479 -2924 -1088 -330
-2289 -388 -3420 -168 -1918 374 -3490 1523 -4123 3014 -546 1283 -359 2706
507 3870 960 1289 2637 2125 4506 2245 318 20 664 20 980 -1z"/>
<path d="M9891 12475 c-248 -54 -428 -182 -560 -397 -119 -192 -173 -413 -173
-698 0 -539 253 -938 662 -1045 87 -22 276 -30 369 -16 311 49 554 249 672
556 113 291 122 712 22 1005 -135 395 -427 612 -820 609 -59 0 -137 -7 -172
-14z m288 -266 c96 -22 186 -86 259 -183 114 -154 172 -364 172 -620 0 -387
-129 -670 -354 -782 -80 -39 -80 -39 -200 -39 -115 0 -124 2 -186 31 -162 77
-273 232 -337 469 -25 93 -27 115 -27 305 -1 167 3 220 18 285 96 412 335 606
655 534z"/>
<path d="M12055 12470 c-216 -34 -418 -128 -563 -265 -204 -190 -307 -435
-319 -762 -20 -509 187 -893 560 -1043 160 -64 229 -75 472 -75 200 1 231 3
346 28 69 14 155 37 190 49 l64 23 3 528 2 527 -340 0 -340 0 0 -130 0 -130
180 0 180 0 0 -300 0 -299 -41 -11 c-68 -19 -209 -30 -289 -24 -430 33 -672
361 -646 874 19 385 202 637 525 721 56 15 111 21 211 22 147 1 245 -12 354
-49 38 -13 70 -24 72 -24 1 0 4 10 8 23 3 12 19 71 35 130 l30 109 -44 19
c-95 42 -210 60 -405 64 -102 2 -212 0 -245 -5z"/>
<path d="M15465 12473 c-77 -4 -323 -33 -341 -40 -12 -4 -14 -164 -14 -1049
l0 -1044 165 0 165 0 0 445 0 445 145 0 c179 0 229 -15 300 -91 65 -69 90
-134 141 -359 54 -238 58 -254 91 -357 l25 -83 170 0 c158 0 170 1 163 18 -29
72 -55 161 -111 390 -35 144 -75 292 -89 328 -45 119 -121 212 -213 258 l-33
17 68 34 c134 67 229 177 280 321 54 156 30 369 -57 504 -130 202 -405 287
-855 263z m337 -264 c71 -15 163 -65 199 -108 60 -73 73 -116 74 -236 0 -94
-3 -117 -23 -159 -38 -82 -85 -132 -165 -171 -92 -45 -149 -55 -313 -55 l-134
0 0 364 0 365 33 4 c72 9 279 6 329 -4z"/>
<path d="M7750 11847 l310 -614 0 -446 0 -447 165 0 165 0 0 448 0 448 321
598 c176 329 323 605 326 612 4 12 -24 14 -177 12 l-182 -3 -105 -230 c-160
-353 -211 -468 -273 -618 l-57 -138 -50 123 c-28 68 -126 291 -218 496 l-168
372 -184 0 -184 0 311 -613z"/>
<path d="M13193 11713 c3 -674 5 -755 21 -823 45 -190 97 -292 200 -396 78
-78 171 -130 286 -161 91 -25 348 -25 440 0 304 82 484 312 530 680 6 48 10
359 10 764 l0 683 -159 0 -160 0 -4 -722 c-3 -644 -6 -731 -21 -798 -38 -161
-105 -260 -218 -321 -58 -31 -71 -34 -168 -37 -89 -3 -114 -1 -162 18 -83 31
-160 104 -203 194 -69 143 -68 131 -72 939 l-4 727 -160 0 -160 0 4 -747z"/>
<path d="M16560 12320 l0 -140 285 0 285 0 0 -920 0 -920 160 0 160 0 0 920 0
920 288 2 287 3 3 138 3 137 -736 0 -735 0 0 -140z"/>
</g>
</svg>
